<svg width="138" height="50" viewBox="0 0 138 50" fill="none" xmlns="http://www.w3.org/2000/svg"><g clip-path="url(#clip0)"><path d="M27.501 17.641c6.963 0 12.625 5.669 12.625 12.64 0 1.268-.176 2.5-.527 3.628h12.59L35.132 4.33c-3.376-5.88-11.851-5.88-15.227 0l-.07.106 7.63 13.204h.036zm0-15.669c2.427 0 4.607 1.268 5.838 3.38l15.263 26.48h-6.506c.07-.529.07-1.057.07-1.585 0-7.712-5.979-14.05-13.504-14.648L22.26 4.507c1.266-1.584 3.13-2.535 5.24-2.535zM53.736 36.62H38.403c-2.18 3.732-6.26 6.268-10.902 6.268-3.587 0-6.823-1.48-9.108-3.909l-6.26 10.845h33.972c6.787 0 11.007-7.324 7.631-13.204zm-1.793 7.782c-1.231 2.112-3.377 3.38-5.838 3.38h-30.42l3.2-5.563c2.462 1.795 5.451 2.746 8.58 2.746 4.784 0 9.285-2.36 12.028-6.268H52.4c.738 1.867.563 3.909-.457 5.705zM14.876 30.247a12.58 12.58 0 019.6-12.254l-6.26-10.845L1.267 36.62c-3.376 5.88.844 13.204 7.596 13.204h.106l7.596-13.204a12.951 12.951 0 01-1.688-6.373zM7.842 47.675c-2.004-.317-3.763-1.479-4.783-3.275-1.23-2.112-1.23-4.612 0-6.725l15.193-26.373 3.2 5.563c-5.205 2.324-8.651 7.535-8.651 13.416 0 2.183.492 4.366 1.442 6.338l-6.4 11.056z" fill="#BD202F"/><path d="M27.5 19.648c-5.837 0-10.585 4.753-10.585 10.599 0 5.845 4.748 10.598 10.586 10.598s10.585-4.753 10.585-10.598c0-5.846-4.747-10.6-10.585-10.6zm0 19.155c-4.712 0-8.545-3.838-8.545-8.556 0-4.719 3.833-8.557 8.546-8.557 4.712 0 8.546 3.838 8.546 8.556-.036 4.719-3.869 8.557-8.546 8.557z" fill="#BD202F"/><path d="M27.5 36.725c3.575 0 6.472-2.9 6.472-6.478a6.475 6.475 0 00-6.471-6.48 6.476 6.476 0 00-6.471 6.48 6.475 6.475 0 006.47 6.478zm25.92-25.527l-2.638 4.789h10.726v15.845h9.39V15.987h4.853l2.849-4.789H53.42zm44.698 0H87.814c-5.697 0-10.304 4.612-10.304 10.317 0 5.704 4.606 10.316 10.304 10.316h10.304c5.697 0 10.304-4.612 10.304-10.316 0-5.705-4.607-10.317-10.304-10.317zm-3.798 15.88h-2.251a5.512 5.512 0 01-5.521-5.528 5.512 5.512 0 015.52-5.529h2.252a5.512 5.512 0 015.521 5.529c.035 3.028-2.462 5.528-5.521 5.528zm37.136-15.916h-20.643v20.599h9.214V15.916h5.17c1.055 0 1.899.845 1.899 1.901a1.892 1.892 0 01-1.899 1.902h-.704l-2.356 4.155 9.284-.106a6.292 6.292 0 006.295-6.303c.035-3.45-2.778-6.303-6.26-6.303zm-21.628 27.113v-3.098h-2.883v4.718h2.672l3.974-3.204v3.204h2.919v-4.718h-2.743l-3.939 3.098zm11.149-3.134h-2.919v4.754h2.919v-4.754zm3.552 1.972h-2.919l-.528.951h3.447v1.831h2.919v-4.754h-2.919v1.972zm4.466-1.936v4.718h2.919v-3.627h4.044l.633-1.091h-7.596zm-49.059 0h-5.31a2.358 2.358 0 00-2.357 2.359 2.358 2.358 0 002.356 2.359h5.31a2.358 2.358 0 002.357-2.36 2.358 2.358 0 00-2.356-2.358zm-1.688 3.627h-1.829a1.262 1.262 0 01-1.266-1.268c0-.704.563-1.268 1.266-1.268h1.829c.703 0 1.266.564 1.266 1.268 0 .669-.563 1.267-1.266 1.267zm6.224-1.902v1.479a.466.466 0 01-.457.458h-.14v1.056h2.32c.669 0 1.231-.528 1.231-1.232v-1.76c0-.353.387-.635.844-.635h2.568v3.627h2.919v-4.718h-6.928c-1.337 0-2.357.74-2.357 1.725zm10.762 0v2.993h6.576l.598-1.021h-4.255v-1.972c0-.352.387-.634.844-.634h3.552v3.627h2.848v-4.718h-7.842c-1.266 0-2.321.74-2.321 1.725zm-27.431-1.761l-1.195 2.465 1.195 2.289h2.954l-1.899-2.36 1.9-2.394h-2.955zm-2.356 1.972l-.95-1.972h-2.989l1.9 2.36-1.9 2.394h2.99l.949-1.831h.563l.421-.95h-.984z" fill="#000"/></g><defs><clipPath id="clip0"><path fill="#fff" d="M0 0h137.857v50H0z"/></clipPath></defs></svg>