<svg width="30" height="30" viewBox="0 0 30 30" fill="none" xmlns="http://www.w3.org/2000/svg"><path d="M12.422 17.578c-2.863-2.864-3.51-5.727-3.655-6.875a1.026 1.026 0 01.295-.86l2.317-2.317c.341-.34.402-.871.146-1.28L7.835.517A1.034 1.034 0 006.495.14L.572 2.93c-.385.19-.612.6-.569 1.027.31 2.949 1.596 10.196 8.719 17.32 7.122 7.122 14.368 8.407 17.318 8.717.428.044.838-.183 1.028-.569l2.79-5.922a1.035 1.035 0 00-.375-1.339l-5.73-3.688a1.035 1.035 0 00-1.28.145l-2.316 2.317a1.028 1.028 0 01-.86.295c-1.148-.146-4.011-.792-6.875-3.655z" fill="#BE1F30"/></svg>