<svg width="138" height="50" viewBox="0 0 138 50" fill="none" xmlns="http://www.w3.org/2000/svg">
<g clip-path="url(#clip0)">
<path d="M27.501 17.641C34.4642 17.641 40.1262 23.31 40.1262 30.2819C40.1262 31.5495 39.9504 32.7819 39.5987 33.9086H52.1887L35.1324 4.33117C31.7563 -1.54911 23.2809 -1.54911 19.9048 4.33117L19.8345 4.43681L27.4659 17.641C27.4659 17.641 27.4659 17.641 27.501 17.641ZM27.501 1.97202C29.9276 1.97202 32.108 3.23962 33.3388 5.3523L48.6016 31.8312H42.0956C42.1659 31.303 42.1659 30.7748 42.1659 30.2467C42.1659 22.5354 36.1874 16.1974 28.6616 15.5988L22.261 4.50723C23.5271 2.92272 25.391 1.97202 27.501 1.97202Z" fill="#BD202F"/>
<path d="M53.7361 36.6199H38.403C36.2227 40.3523 32.1432 42.8875 27.5011 42.8875C23.914 42.8875 20.6785 41.4087 18.3926 38.9791L12.1328 49.8242H46.1048C52.8921 49.8242 57.1122 42.5002 53.7361 36.6199ZM51.9426 44.4016C50.7117 46.5143 48.5665 47.7819 46.1048 47.7819H15.6847L18.885 42.2185C21.3467 44.0143 24.336 44.965 27.4659 44.965C32.2487 44.965 36.7502 42.6058 39.4932 38.6974H52.3998C53.1383 40.5636 52.9625 42.6058 51.9426 44.4016Z" fill="#BD202F"/>
<path d="M14.8757 30.2465C14.8757 24.2958 18.9552 19.331 24.4765 17.993L18.2167 7.14789L1.26586 36.6197C-2.11023 42.5 2.10988 49.8239 8.86207 49.8239H8.96757L16.5638 36.6197C15.5088 34.7535 14.8757 32.5704 14.8757 30.2465ZM7.84221 47.676C5.83765 47.3591 4.07927 46.1972 3.05941 44.4014C1.82854 42.2887 1.82854 39.7887 3.05941 37.6761L18.2518 11.3028L21.4521 16.8662C16.2473 19.1901 12.8008 24.4014 12.8008 30.2817C12.8008 32.4648 13.2932 34.6479 14.2427 36.6197L7.84221 47.676Z" fill="#BD202F"/>
<path d="M27.5007 19.6479C21.6629 19.6479 16.9153 24.4014 16.9153 30.2465C16.9153 36.0916 21.6629 40.8451 27.5007 40.8451C33.3386 40.8451 38.0862 36.0916 38.0862 30.2465C38.0862 24.4014 33.3386 19.6479 27.5007 19.6479ZM27.5007 38.8028C22.7883 38.8028 18.955 34.9648 18.955 30.2465C18.955 25.5282 22.7883 21.6901 27.5007 21.6901C32.2132 21.6901 36.0465 25.5282 36.0465 30.2465C36.0113 34.9648 32.178 38.8028 27.5007 38.8028Z" fill="#BD202F"/>
<path d="M27.5009 36.7255C31.0746 36.7255 33.9717 33.8248 33.9717 30.2467C33.9717 26.6685 31.0746 23.7678 27.5009 23.7678C23.9271 23.7678 21.03 26.6685 21.03 30.2467C21.03 33.8248 23.9271 36.7255 27.5009 36.7255Z" fill="black"/>
<path d="M53.4196 11.1981L50.782 15.9869H61.5081V31.8319H70.8979V15.9869H75.751L78.5996 11.1981H53.4196Z" fill="black"/>
<path d="M98.1178 11.1976H87.8136C82.1165 11.1976 77.5095 15.8103 77.5095 21.5145C77.5095 27.2187 82.1165 31.8314 87.8136 31.8314H98.1178C103.815 31.8314 108.422 27.2187 108.422 21.5145C108.422 15.8103 103.815 11.1976 98.1178 11.1976ZM94.3197 27.0779H92.0689C89.0093 27.0779 86.5476 24.6131 86.5476 21.5497C86.5476 18.4863 89.0093 16.0215 92.0689 16.0215H94.3197C97.3792 16.0215 99.841 18.4863 99.841 21.5497C99.8761 24.5779 97.3792 27.0779 94.3197 27.0779Z" fill="black"/>
<path d="M131.456 11.1624H110.813V31.7609H120.027V15.9159H125.197C126.252 15.9159 127.096 16.7609 127.096 17.8173C127.096 18.8736 126.252 19.7187 125.197 19.7187H124.493L122.137 23.8736L131.421 23.768C134.903 23.768 137.716 20.9511 137.716 17.4652C137.751 14.0145 134.938 11.1624 131.456 11.1624Z" fill="black"/>
<path d="M109.828 38.2753V35.1767H106.945V39.895H109.617L113.591 36.6908V39.895H116.51V35.1767H113.767L109.828 38.2753Z" fill="black"/>
<path d="M120.977 35.1414H118.058V39.895H120.977V35.1414Z" fill="black"/>
<path d="M124.529 37.1133H121.61L121.082 38.064H124.529V39.895H127.448V35.1414H124.529V37.1133Z" fill="black"/>
<path d="M128.995 35.1767V39.895H131.914V36.2683H135.958L136.591 35.1767H128.995Z" fill="black"/>
<path d="M79.9358 35.1767H74.6255C73.3243 35.1767 72.2693 36.2331 72.2693 37.5359C72.2693 38.8387 73.3243 39.895 74.6255 39.895H79.9358C81.237 39.895 82.2921 38.8387 82.2921 37.5359C82.2921 36.2331 81.237 35.1767 79.9358 35.1767ZM78.2478 38.8035H76.4191C75.7157 38.8035 75.153 38.2401 75.153 37.5359C75.153 36.8317 75.7157 36.2683 76.4191 36.2683H78.2478C78.9511 36.2683 79.5138 36.8317 79.5138 37.5359C79.5138 38.2049 78.9511 38.8035 78.2478 38.8035Z" fill="black"/>
<path d="M84.4724 36.9021V38.381C84.4724 38.6274 84.2614 38.8387 84.0152 38.8387H83.8745V39.895C83.8745 39.895 86.0549 39.895 86.1956 39.895C86.8638 39.895 87.4264 39.3669 87.4264 38.6626C87.4264 38.5218 87.4264 36.9021 87.4264 36.9021C87.4264 36.55 87.8133 36.2683 88.2705 36.2683H90.8377V39.895H93.7566V35.1767C93.7566 35.1767 86.9341 35.1767 86.8286 35.1767C85.4922 35.1767 84.4724 35.9162 84.4724 36.9021Z" fill="black"/>
<path d="M95.2339 36.9021V39.895H101.81L102.408 38.8739H98.1528V36.9021C98.1528 36.55 98.5397 36.2683 98.9968 36.2683H99.665H102.549V39.895H105.397V35.1767C105.397 35.1767 97.6605 35.1767 97.555 35.1767C96.2889 35.1767 95.2339 35.9162 95.2339 36.9021Z" fill="black"/>
<path d="M67.8034 35.1414L66.6077 37.6062L67.8034 39.895H70.7574L68.8584 37.5358L70.7574 35.1414H67.8034Z" fill="black"/>
<path d="M65.4468 37.1133L64.4973 35.1414H61.5081L63.4071 37.5006L61.5081 39.895H64.4973L65.4468 38.064H66.0095L66.4315 37.1133H65.4468Z" fill="black"/>
</g>
<defs>
<clipPath id="clip0">
<rect width="137.857" height="50" fill="white"/>
</clipPath>
</defs>
</svg>
