<svg width="30" height="30" viewBox="0 0 30 30" fill="none" xmlns="http://www.w3.org/2000/svg">
<path d="M12.4224 17.5775C9.55894 14.714 8.91239 11.8506 8.76653 10.7033C8.72577 10.3861 8.83493 10.068 9.06187 9.84262L11.3791 7.52642C11.72 7.18576 11.7805 6.65485 11.525 6.24624L7.83549 0.517278C7.55283 0.0648202 6.97244 -0.0984763 6.49532 0.140209L0.572389 2.92969C0.186558 3.11968 -0.0403833 3.52962 0.0034236 3.95745C0.313768 6.90573 1.59911 14.1533 8.72153 21.2762C15.8439 28.3992 23.0905 29.684 26.0403 29.9943C26.4682 30.0382 26.8781 29.8112 27.0681 29.4254L29.8576 23.5025C30.0954 23.0264 29.9331 22.4475 29.4826 22.1643L23.7536 18.4759C23.3452 18.2201 22.8143 18.2802 22.4734 18.6207L20.1572 20.938C19.9319 21.1649 19.6137 21.2741 19.2965 21.2333C18.1493 21.0875 15.2858 20.4409 12.4224 17.5775Z" fill="#BE1F30"/>
</svg>
